<?xml version="1.0" encoding="UTF-8"?>
<svg xmlns="http://www.w3.org/2000/svg" xmlns:xlink="http://www.w3.org/1999/xlink" version="1.1" viewBox="0 0 1360.1 316.1">
  <defs>
    <style>
      .cls-1 {
        fill: url(#linear-gradient);
      }
    </style>
    <linearGradient id="linear-gradient" x1="181.3" y1="31.3" x2="1209.9" y2="31.3" gradientTransform="translate(0 316.1) scale(1 -1)" gradientUnits="userSpaceOnUse">
      <stop offset="0" stop-color="#ed3224"/>
      <stop offset="0" stop-color="#ed3e23"/>
      <stop offset="0" stop-color="#ef5322"/>
      <stop offset=".2" stop-color="#f06022"/>
      <stop offset=".2" stop-color="#f16522"/>
      <stop offset=".4" stop-color="#ffdc18"/>
      <stop offset=".6" stop-color="#00a04b"/>
      <stop offset=".8" stop-color="#0080c7"/>
      <stop offset="1" stop-color="#90278e"/>
      <stop offset="1" stop-color="#90278e"/>
    </linearGradient>
  </defs>
  <!-- Generator: Adobe Illustrator 28.6.0, SVG Export Plug-In . SVG Version: 1.2.0 Build 709)  -->
  <g>
    <g id="Layer_2_xA0_Image">
      <path class="cls-1" d="M1209.9,266H181.3v37.6h1028.6v-37.6Z"/>
      <path d="M277,90.2c0-31.8-6.5-45.6-26.4-45.6s-27.6,22.4-27.6,84.2,9.2,78.1,28.3,78.1,27.6-8.3,27.6-55.4h44.2c0,47.1-11.7,87.9-69.7,87.9-66.4,0-74.7-47.1-74.7-113.6S187,12.1,253.4,12.1s67.9,46.2,67.9,78.1h-44.2Z"/>
      <path d="M395.3,152.6h43l-21.2-98.3h-.6l-21.2,98.3h0ZM389.5,16.4h54.7l58.1,218.6h-46.1l-10.1-46.2h-58.4l-10.1,46.2h-46.1l58.1-218.6Z"/>
      <path d="M520.3,235V16.4h44.2v182.4h78.3v36.1h-122.6Z"/>
      <path d="M667.2,235V16.4h44.2v218.6h-44.2Z"/>
      <path d="M789.5,202.5h17.2c21.2,0,35.6-7.7,35.6-33.1s-14.4-32.8-33.8-32.8h-19.1v65.8h0ZM789.5,106.1h12.6c24.3,0,35.3-8.3,35.3-28.8s-10.1-28.5-32-28.5h-16v57.3ZM745.2,16.4h74c36.3,0,62.4,13.5,62.4,55.4s-11.4,41.6-33.2,47.8v.6c24.3,3.4,39.9,21.7,39.9,50.8s-16.9,64-68.5,64h-74.7V16.4h0Z"/>
      <path d="M1038.4,16.4v36.1h-78.3v51.4h73.7v36.1h-73.7v58.8h81.4v36.1h-125.7V16.4h122.6Z"/>
      <path d="M1114.6,111.9h18.4c21.2,0,33.2-9.2,33.2-32.7s-10.8-30.3-30.7-30.3h-20.9v63.1ZM1070.4,16.4h81.7c36.3,0,58.4,19,58.4,56.3s-11.7,48.7-36.6,53.9v.6c30.1,4,34.7,20.5,35.3,66.7.3,23,1.5,34.9,9.8,39.2v1.8h-47.9c-4.3-6.1-5.2-14.4-5.5-23l-1.2-41.9c-.6-17.1-8.3-27.5-26.1-27.5h-23.7v92.5h-44.2V16.4Z"/>
      <path d="M1228.2,224.6c.3,0,.6,0,.9,0,.3,0,.6,0,.9,0s.8,0,1.1.1c.3,0,.6.2.9.4s.4.4.6.6c.1.3.2.6.2.9,0,.5-.1.9-.4,1.3-.2.3-.5.6-.8.7l1.8,2.8c-.2,0-.3,0-.4,0h-.4c-.2,0-.5,0-.7,0l-2-3.1.3-.2c.3-.1.6-.3.8-.5.2-.2.4-.5.4-.8s-.1-.6-.4-.8c-.2-.2-.6-.3-.9-.3h-.3c-.1,0-.2,0-.3,0v5.6c-.2,0-.4,0-.6,0s-.5,0-.7,0v-6.7h0ZM1230.3,233.3c.8,0,1.5-.1,2.2-.4.6-.3,1.2-.6,1.6-1.1.4-.5.8-1,1-1.7.2-.6.3-1.3.3-2.1s-.1-1.4-.3-2.1c-.2-.7-.6-1.2-1-1.7-.4-.5-1-.9-1.6-1.1-.6-.3-1.4-.4-2.2-.4s-1.5.1-2.2.4c-.6.3-1.2.7-1.6,1.1-.4.5-.8,1-1,1.7-.3.6-.4,1.3-.4,2.1s.1,1.5.4,2.1c.2.6.6,1.2,1,1.7.4.5,1,.8,1.6,1.1.6.3,1.4.4,2.2.4ZM1230.3,234.5c-1,0-1.8-.2-2.6-.5-.8-.3-1.5-.8-2-1.3-.6-.6-1-1.3-1.3-2-.3-.8-.5-1.6-.5-2.6s.2-1.8.5-2.6c.3-.8.8-1.5,1.3-2,.6-.6,1.2-1,2-1.3.8-.3,1.6-.5,2.6-.5s1.8.2,2.6.5c.8.3,1.5.8,2,1.3.5.6,1,1.3,1.3,2,.3.8.5,1.6.5,2.6s-.2,1.8-.5,2.6c-.3.8-.8,1.5-1.3,2-.6.6-1.2,1-2,1.3-.8.3-1.7.5-2.6.5h0Z"/>
    </g>
  </g>
</svg>