<?xml version="1.0" encoding="UTF-8"?>
<svg xmlns="http://www.w3.org/2000/svg" version="1.1" viewBox="0 0 75 28">
  <defs>
    <style>
      .cls-1 {
        fill: #00438c;
      }

      .cls-2 {
        fill: #0097a0;
      }
    </style>
  </defs>
  <!-- Generator: Adobe Illustrator 28.6.0, SVG Export Plug-In . SVG Version: 1.2.0 Build 709)  -->
  <g>
    <g id="Layer_1">
      <g>
        <path class="cls-1" d="M11.1,5.3s0,0,.1,0c0,0,.2,0,.3,0-2.6.3-4.7,1.5-6.2,3.6-1,1.4-1.5,2.9-1.5,4.6,0,2.2.6,4.1,2.1,5.7,1.4,1.6,3.2,2.6,5.4,2.9h0c0,0-.2,0-.2,0,0,0,0,0-.1,0h-.6s0,0-.1,0c-.4,0-.8,0-1.2-.1-.4,0-.9-.1-1.3-.3-.6-.1-1.1-.3-1.7-.6-.8-.4-1.6-.9-2.3-1.4-1-.8-1.8-1.8-2.3-3-.2-.4-.3-.7-.4-1.1,0-.3-.2-.7-.2-1,0-.3,0-.6,0-1,0-.4,0-.7,0-1.1,0-.6.2-1.1.4-1.7.3-.8.8-1.6,1.4-2.3.8-1,1.9-1.8,3.1-2.4.8-.4,1.6-.7,2.4-.9.6-.1,1.1-.2,1.7-.2,0,0,0,0,.1,0,.4,0,.8,0,1.3,0Z"/>
        <path class="cls-2" d="M5.1,13.9c0-4.5,3.7-8.2,8.3-8.1,4.3,0,7.9,3.6,7.9,8,0,4.6-3.6,8.3-8.2,8.2-4.5,0-8.1-3.6-8.1-8.1ZM16.2,15.3c.4,0,.9,0,1.3,0,.3,0,.4-.2.4-.4,0-.7,0-1.4,0-2.1,0,0,0,0,0-.1,0-.2-.1-.3-.3-.3,0,0,0,0-.1,0-.9,0-1.7,0-2.6,0-.1,0-.1,0-.1-.1,0,0,0,0,0,0,0-.9,0-1.7,0-2.6,0,0,0,0,0-.1,0-.2,0-.2-.2-.3,0,0,0,0-.1,0-.7,0-1.4,0-2.2,0-.3,0-.4.1-.4.4,0,.9,0,1.7,0,2.6,0,0,0,0,0,0,0,0,0,0,0,0,0,0,0,0,0,0-.9,0-1.7,0-2.6,0,0,0-.1,0-.2,0-.2,0-.3.1-.3.3,0,0,0,0,0,.1,0,.7,0,1.4,0,2.1,0,0,0,0,0,.1,0,.2.1.3.3.3,0,0,0,0,.1,0,.9,0,1.7,0,2.6,0q.2,0,.2.2c0,.8,0,1.7,0,2.5,0,.3.1.4.4.4.4,0,.8,0,1.2,0,.3,0,.6,0,.9,0,0,0,.1,0,.2,0,0,0,.1,0,.2-.2,0,0,0-.1,0-.2,0-.9,0-1.7,0-2.6,0-.2,0-.2.2-.2.4,0,.9,0,1.3,0Z"/>
        <path class="cls-1" d="M53.5,13.9s0,0,.1,0c.3.2.7.4,1.1.5.5.1.9.1,1.4,0,.2,0,.3-.1.5-.2.2-.2.3-.4.2-.7,0-.2-.1-.3-.2-.4-.2-.1-.3-.2-.5-.2-.4-.1-.8-.2-1.2-.3-.3,0-.6-.2-.9-.4-.4-.3-.7-.7-.7-1.2,0-.4.1-.8.4-1.2.2-.2.5-.4.8-.5.4-.1.8-.2,1.2-.2.6,0,1.2,0,1.7.3,0,0,.2,0,.3.1,0,0,0,0,0,.1,0,.2-.2.5-.3.7,0,0,0,0-.1,0-.2-.1-.5-.2-.8-.3-.4-.1-.9-.2-1.3,0-.2,0-.5.1-.6.3-.2.2-.3.4-.2.7,0,.2.2.3.4.4.1,0,.3.1.4.2.3,0,.6.1.9.2.4,0,.8.2,1.1.4.2.1.4.3.6.5.1.2.2.4.2.6,0,.9-.4,1.5-1.1,1.8-.5.2-1,.3-1.6.2-.5,0-1-.1-1.4-.3-.2,0-.4-.2-.6-.3-.1,0-.1,0,0-.2,0-.2.2-.4.3-.6,0,0,0,0,0-.2Z"/>
        <path class="cls-1" d="M28.8,13.8c.2.2.5.5.7.7,0,0-.1.2-.2.2-.4.3-.8.6-1.3.7-.5.1-1,.2-1.5,0-.9-.1-1.6-.6-2.2-1.3-.3-.4-.4-.8-.5-1.2,0-.5,0-1.1.1-1.6.2-.6.6-1.1,1.1-1.5.4-.3.9-.4,1.3-.5.3,0,.6,0,.9,0,.8,0,1.4.3,2,.9,0,0,0,0,0,0,0,0,0,0,0,.1-.2.1-.3.3-.5.4,0,0,0,0-.1.1,0,0,0,0-.1,0-.2-.1-.3-.3-.5-.4-.3-.2-.6-.2-.9-.2-.8,0-1.5.3-2,1-.3.5-.3,1-.2,1.5,0,.4.2.7.5,1,.3.4.7.6,1.2.7.2,0,.5,0,.7,0,.4,0,.8-.2,1.1-.4,0,0,.2-.2.3-.2,0,0,0,0,0,0Z"/>
        <path class="cls-1" d="M42.7,14.1s0,0,0,0c.2.2.3.3.5.5,0,0,0,0,0,.2-.3.3-.6.5-1,.6-.3,0-.7.1-1.1,0-.6,0-1.2-.3-1.6-.7-.2-.2-.4-.5-.5-.8-.2-.6-.2-1.1,0-1.7.2-.7.7-1.1,1.4-1.4.5-.2,1-.2,1.5,0,.7.2,1.3.6,1.6,1.3.2.4.2.8.2,1.2,0,0,0,.1-.1.1,0,0,0,0-.1,0-1.1,0-2.2,0-3.2,0-.2,0-.2,0-.1.2.2.4.4.7.9.8.5.2,1,.1,1.5-.1.1,0,.2-.1.3-.2,0,0,0,0,0,0ZM41.3,12.7c.2,0,.4,0,.7,0,.2,0,.4,0,.5,0,0,0,.1,0,0-.1,0-.4-.3-.7-.6-.9-.2-.1-.5-.2-.7-.2-.4,0-.7.2-1,.4-.1.2-.2.4-.3.6,0,0,0,.1,0,.1,0,0,0,0,0,0,.4,0,.7,0,1.1,0Z"/>
        <path class="cls-1" d="M48.1,14.1s0,0,0,0c.1.2.3.3.4.5,0,0,0,0,0,.2-.3.3-.6.5-1,.6-.5.1-.9.1-1.4,0-.8-.2-1.5-.6-1.8-1.4-.2-.4-.2-.9-.1-1.3,0-.6.3-1,.8-1.4.3-.2.6-.4.9-.5.4-.1.9-.1,1.3,0,.8.2,1.4.7,1.7,1.5,0,.3.1.6.1.9,0,.1,0,.2-.2.2-.3,0-.7,0-1,0-.8,0-1.5,0-2.3,0-.2,0-.2,0-.1.2.1.4.4.7.8.8.4.1.7.1,1.1,0,.2,0,.5-.2.7-.3,0,0,0,0,0,0,0,0,0,0,0,0ZM46.7,12.7c.4,0,.8,0,1.1,0,0,0,0,0,0,0,0,0,0,0,0,0,0-.3-.2-.5-.4-.7-.4-.4-1.2-.5-1.7-.1-.3.2-.4.4-.5.8,0,.1,0,.1.1.1,0,0,0,0,0,0,.4,0,.8,0,1.1,0Z"/>
        <path class="cls-1" d="M30.7,12.1s0,0,0,0c-.1-.2-.2-.4-.3-.6,0,0,0-.1,0-.2.3-.2.6-.3,1-.4.4,0,.7-.1,1.1,0,.4,0,.8.1,1.1.3.4.2.6.5.7.9,0,.3.1.5.1.8,0,.8,0,1.7,0,2.5,0,0,0,0,0,0,0,0,0,.1-.1.1-.1,0-.2,0-.3,0-.2,0-.3,0-.5,0-.1,0-.1,0-.1-.2,0,0,0-.2,0-.2,0,0,0,0,0,0,0,0,0,0,0,0-.2.2-.5.4-.8.4-.4,0-.7,0-1.1,0-.4,0-.8-.3-1-.7-.4-.7-.1-1.5.6-1.9.3-.1.6-.2.9-.2.4,0,.8,0,1.2,0,0,0,0,0,0,0,0,0,0,0,0,0,0-.3-.1-.6-.4-.8-.1,0-.3-.1-.4-.1-.2,0-.5,0-.7,0-.3,0-.7.2-1,.4,0,0,0,0,0,0ZM32.5,13.4h0c-.2,0-.3,0-.5,0-.1,0-.3,0-.4,0-.5.1-.5.5-.4.8,0,.2.2.2.4.3.3.1.7,0,1,0,.2,0,.4-.3.6-.5,0,0,0-.1,0-.2,0-.1,0-.2,0-.3,0-.1,0-.1-.1-.1-.2,0-.4,0-.6,0Z"/>
        <path class="cls-1" d="M62.9,12.1s0,0,0-.1c-.1-.2-.2-.4-.3-.6,0,0,0-.1,0-.2.3-.2.6-.3.9-.4.4,0,.8-.1,1.2-.1.4,0,.7,0,1,.3.5.2.7.7.8,1.2,0,.2,0,.4,0,.6,0,.8,0,1.7,0,2.5,0,0,0,0,0,0,0,0,0,0,0,0-.3,0-.6,0-.8,0,0,0,0,0,0-.1,0,0,0-.2,0-.3,0,0,0,0,0-.1,0,0,0,0,0,0-.2.2-.5.4-.8.4-.4,0-.7,0-1.1,0-.4,0-.7-.3-1-.6-.2-.3-.3-.7-.2-1,0-.4.4-.7.8-.9.3-.1.6-.2.9-.2.4,0,.8,0,1.2,0,0,0,0,0,0,0,0,0,0,0,0,0,0-.3-.1-.6-.4-.8-.1,0-.3-.1-.5-.1-.6,0-1.1,0-1.6.4,0,0,0,0,0,0ZM65.5,13.7c0,0,0-.1,0-.2,0-.1,0-.1-.1-.1-.3,0-.7,0-1,0-.1,0-.3,0-.4,0-.3,0-.4.2-.5.5,0,.3.1.5.4.6.4.2.8.1,1.2-.1.3-.2.5-.4.4-.7Z"/>
        <path class="cls-1" d="M68.1,10.8c0,0,0-.2,0-.2,0-.3,0-.5.2-.8.1-.3.4-.5.7-.7.3-.1.7-.2,1-.2.2,0,.4,0,.6.1,0,0,0,0,.1,0,0,0,0,0,0,.1,0,.2-.2.4-.2.6,0,0,0,.1-.2,0-.2-.1-.4-.1-.6-.1-.3,0-.5.2-.5.4,0,.1,0,.3,0,.4,0,.1,0,.1.1.1.3,0,.5,0,.8,0,0,0,.2,0,.2,0,.1,0,.1,0,.1.1,0,.2,0,.4,0,.6,0,.1,0,.1-.1.1-.3,0-.6,0-.9,0,0,0,0,0-.1,0,0,0,0,0,0,0,0,0,0,0,0,0,0,1.1,0,2.2,0,3.3,0,0,0,0,0,0,0,.1,0,.1-.1.1-.3,0-.6,0-.8,0-.1,0-.1,0-.1-.1,0-1.1,0-2.3,0-3.4q0-.2-.2-.2c-.1,0-.3,0-.4,0-.2,0-.2,0-.2-.2,0-.2,0-.4,0-.6,0-.1,0-.1.1-.1.2,0,.3,0,.5,0,0,0,0,0,.1,0Z"/>
        <path class="cls-1" d="M72.3,10.8c.4,0,.8,0,1.3,0,0,0,0,0,0,0,0,.2,0,.4,0,.6,0,.1,0,.1-.1.1-.3,0-.6,0-.9,0,0,0,0,0-.1,0,0,0,0,0,0,0,0,0,0,0,0,.1,0,1.1,0,2.2,0,3.4,0,0,0,0,0,0,0,0,0,0,0,.1-.3,0-.6,0-.9,0,0,0,0,0,0-.1,0,0,0,0,0,0,0-1.1,0-2.2,0-3.4,0,0,0,0,0,0,0,0,0,0,0,0,0,0-.2,0-.3,0,0,0-.2,0-.3,0,0,0-.1,0-.1,0,0-.2,0-.4,0-.7,0,0,0,0,.1,0,.2,0,.3,0,.5,0,.1,0,.1,0,.1-.1,0-.2,0-.4,0-.6.1-.6.5-.9,1-1.1.4-.1.8,0,1.2,0,0,0,.2,0,.3.1,0,0,0,0,0,.1,0,.2-.2.4-.2.6,0,0,0,0,0,0,0,0-.1,0-.2,0-.2,0-.4-.1-.6,0-.2,0-.3.1-.4.3-.1.2,0,.5,0,.7Z"/>
        <path class="cls-1" d="M60.3,11.7c0,0,0,.1,0,.2,0,.7,0,1.4,0,2,0,0,0,.1,0,.2,0,.4.3.5.7.5.2,0,.3,0,.5-.1,0,0,0,0,0,0,0,0,0,0,0,0,0,.2.2.4.2.6,0,0,0,.1,0,.2-.2.1-.5.2-.7.2-.2,0-.5,0-.7,0-.6-.1-1-.5-1.1-1.1,0-.2,0-.3,0-.5,0-.6,0-1.3,0-1.9,0,0,0,0,0,0,0,0,0,0,0-.1-.1,0-.3,0-.4,0,0,0,0,0-.1,0,0,0,0,0,0,0,0-.2,0-.5,0-.7,0,0,0,0,.1,0,.2,0,.3,0,.5,0,.1,0,.1,0,.1-.1,0-.3,0-.5,0-.8,0-.1,0-.2.2-.2.3,0,.5,0,.8,0,.1,0,.1,0,.1.1,0,.2,0,.5,0,.7,0,0,0,0,0,0,0,0,0,.1.1.1.2,0,.5,0,.7,0,0,0,.2,0,.3,0,0,0,0,0,0,0,0,.2,0,.4,0,.6,0,.1,0,.1-.1.1-.3,0-.6,0-1,0,0,0,0,0-.2,0Z"/>
        <path class="cls-2" d="M37.9,18.8c.2-.2.3-.3.5-.4.2,0,.4-.1.7-.1.2,0,.4,0,.6.1.2.1.4.3.5.5,0,0,0,0,0,0,.3-.3.6-.5,1-.5.3,0,.6,0,.9.1.3.1.5.4.7.7,0,.2,0,.4,0,.7,0,.6,0,1.2,0,1.8,0,.1,0,.1-.1.1-.1,0-.2,0-.4,0-.1,0-.1,0-.1-.1,0-.6,0-1.2,0-1.8,0-.1,0-.3,0-.4,0-.3-.3-.5-.6-.6-.2,0-.4,0-.7,0-.3.1-.5.4-.5.8,0,.1,0,.2,0,.4,0,.5,0,1,0,1.5,0,0,0,0,0,0,0,0,0,0,0,0-.2,0-.3,0-.5,0,0,0,0,0,0,0,0,0,0,0,0-.1,0-.6,0-1.1,0-1.7,0-.2,0-.4,0-.5,0-.2-.2-.4-.4-.4-.3-.1-.7,0-1,.1-.2.1-.3.3-.4.6,0,.2,0,.3,0,.5,0,.5,0,1,0,1.5,0,0,0,0,0,.1,0,0,0,0-.1,0-.1,0-.3,0-.4,0-.1,0-.1,0-.1-.1,0,0,0,0,0-.1,0-1,0-2,0-3,0,0,0,0,0,0,0-.1,0-.1.1-.1.1,0,.2,0,.3,0,.1,0,.1,0,.1.1,0,.1,0,.2,0,.3,0,0,0,0,0,0Z"/>
        <path class="cls-2" d="M55.1,18.8s0,0,0-.1c0-.5,0-1,0-1.5,0,0,0,0,0,0,0,0,0,0,0,0,.2,0,.3,0,.5,0,0,0,0,0,0,0,0,0,0,0,0,0,0,1.5,0,3,0,4.5,0,0,0,0,0,0,0,.1,0,.1-.1.1-.1,0-.2,0-.4,0,0,0-.1,0-.1-.1,0,0,0-.2,0-.2,0,0,0,0,0-.1,0,0,0,0,0,0-.3.4-.8.5-1.3.4-.3,0-.5,0-.7-.2-.4-.2-.6-.5-.8-.9-.1-.4-.1-.8,0-1.2.1-.5.5-.9,1-1.1.4-.2.8-.2,1.1,0,.3,0,.5.2.7.4,0,0,0,0,0,0,0,0,0,0,0,0ZM54,18.8c-.3,0-.6.1-.8.3-.3.4-.4.9-.2,1.4.2.4.5.7.9.7.3,0,.7,0,.9-.3.3-.3.4-.6.4-1,0-.7-.5-1.1-1.1-1.1Z"/>
        <path class="cls-1" d="M36.8,11.4s0,0,0,0c.2-.2.4-.4.7-.5.2,0,.5-.1.7-.1.1,0,.1,0,.1.1,0,.3,0,.5,0,.8,0,.1,0,.1-.1.1-.2,0-.5,0-.7,0-.4.2-.7.5-.8.9,0,.1,0,.3,0,.4,0,.7,0,1.3,0,2,0,0,0,0,0,0,0,.1,0,.1-.1.1-.3,0-.5,0-.8,0-.2,0-.2,0-.2-.2,0-.8,0-1.7,0-2.5,0-.6,0-1.2,0-1.8,0,0,0,0,0,0,0,0,0-.1.1-.1.3,0,.5,0,.8,0,0,0,0,0,0,0,0,0,0,0,0,0,0,.1,0,.2,0,.4,0,0,0,0,0,.1Z"/>
        <path class="cls-2" d="M24.1,18.8c0-.5,0-.9,0-1.4,0,0,0,0,0,0,0,0,0,0,0,0,.2,0,.3,0,.5,0,0,0,0,0,0,0,0,0,0,0,0,.1,0,.8,0,1.7,0,2.5,0,.2,0,.5.2.7.1.3.4.5.6.6.4.1.7,0,1.1,0,.3-.1.5-.3.6-.6,0-.2.1-.5.1-.7,0-.8,0-1.6,0-2.4,0,0,0,0,0,0,0,0,0,0,0,0,.2,0,.3,0,.5,0,0,0,0,0,0,0,0,0,0,0,0,0,0,.8,0,1.6,0,2.4,0,.3,0,.7-.2,1-.2.5-.6.8-1.1.9-.4.1-.8.1-1.2,0-.6-.1-1.1-.5-1.3-1.1,0-.3-.1-.6-.1-.9,0-.3,0-.7,0-1Z"/>
        <path class="cls-1" d="M51.1,11.4s0,0,0,0c.2-.2.4-.4.7-.5.2,0,.5-.1.7-.1.1,0,.1,0,.1.1,0,.3,0,.5,0,.8,0,.1,0,.1-.1.1-.2,0-.5,0-.7,0-.3.1-.6.4-.7.7,0,.2,0,.4,0,.6,0,.7,0,1.3,0,2,0,0,0,0,0,0,0,0,0,.1-.1.1-.3,0-.6,0-.9,0,0,0-.1,0-.1-.1,0,0,0,0,0,0,0-1.4,0-2.9,0-4.3,0,0,0,0,0,0,0,0,0,0,0,0,0,0,0,0,0,0,.3,0,.5,0,.8,0,.1,0,.1,0,.1.1,0,.1,0,.2,0,.3,0,0,0,0,0,.1Z"/>
        <path class="cls-2" d="M48.8,20.3c0,.1,0,.2,0,.3.2.4.5.6.8.7.3,0,.6,0,.9,0,.1,0,.2-.1.3-.2,0,0,0,0,0,0,0,0,0,0,0,0,0,0,.1.2.2.2,0,0,0,0,0,.2-.2.2-.4.3-.7.4-.3.1-.7.1-1,0-.6-.1-1.1-.5-1.3-1.1-.2-.4-.2-.8,0-1.2.1-.5.4-.8.9-1,.4-.2.7-.2,1.1-.1.5,0,.9.4,1.1.8.2.3.2.7.2,1,0,0,0,.1-.1.1,0,0,0,0,0,0-.8,0-1.6,0-2.4,0,0,0-.1,0-.2,0ZM49.9,19.8c.3,0,.5,0,.8,0,0,0,.1,0,.2,0,0,0,0,0,0,0,0-.1,0-.3-.2-.4-.4-.6-1.1-.6-1.5-.4-.3.2-.5.4-.5.7,0,0,0,.1,0,.1,0,0,0,0,0,0,.3,0,.6,0,.9,0Z"/>
        <path class="cls-2" d="M29.8,18.8s0,0,0,0c.3-.3.7-.4,1.1-.4.3,0,.6,0,.9.2.3.2.4.4.5.7,0,.2,0,.4,0,.6,0,.6,0,1.2,0,1.8,0,.1,0,.1-.1.1-.1,0-.2,0-.4,0-.1,0-.1,0-.1-.1,0-.3,0-.5,0-.8,0-.3,0-.6,0-.9,0-.1,0-.3,0-.4,0-.3-.2-.5-.5-.6-.3,0-.6,0-.8,0-.4.2-.6.5-.6,1,0,.6,0,1.1,0,1.7q0,.2-.2.2c-.1,0-.2,0-.3,0,0,0-.1,0-.1-.1,0,0,0,0,0,0,0-1,0-2.1,0-3.1s0,0,0,0c0-.2,0-.2.2-.2.1,0,.2,0,.3,0,0,0,0,0,0,.1,0,0,0,.2,0,.2,0,0,0,0,0,.1Z"/>
        <path class="cls-2" d="M47.7,21.1c0,.1.1.3.2.4,0,0,0,0,0,.1-.1,0-.2.1-.3.1-.3,0-.6,0-.9,0-.3-.1-.5-.4-.6-.8,0,0,0-.1,0-.2,0-.6,0-1.1,0-1.7,0,0,0,0,0,0,0,0,0-.1-.1-.1-.1,0-.2,0-.3,0-.1,0-.1,0-.1-.1,0,0,0-.2,0-.3,0,0,0-.1.1-.1.1,0,.2,0,.3,0,.1,0,.1,0,.1-.1,0-.2,0-.3,0-.5,0-.1,0-.1.1-.1.1,0,.3,0,.4,0,0,0,.1,0,.1.1,0,.2,0,.3,0,.5,0,.1,0,.2.2.2.2,0,.5,0,.7,0,.1,0,.1,0,.1.1,0,.1,0,.2,0,.3,0,0,0,.1-.1.1-.2,0-.5,0-.7,0,0,0,0,0,0,0,0,0,0,0,0,0,0,0,0,0,0,0,0,.6,0,1.1,0,1.7,0,0,0,.2,0,.3,0,.2.2.3.4.3.2,0,.4,0,.5-.1,0,0,0,0,0,0Z"/>
        <path class="cls-2" d="M34.3,19.4c0,.7,0,1.5,0,2.2,0,0,0,0,0,0,0,0,0,0,0,0-.2,0-.3,0-.5,0,0,0,0,0,0,0,0,0,0,0,0,0,0-1.5,0-3,0-4.5,0,0,0,0,0,0,0,0,0,0,.1,0,.1,0,.3,0,.4,0,.1,0,.1,0,.1.1,0,.2,0,.5,0,.7,0,.5,0,1.1,0,1.6Z"/>
        <path class="cls-2" d="M44.1,20c0-.5,0-1,0-1.5,0,0,0,0,0,0,0,0,0,0,0,0,.2,0,.3,0,.5,0,0,0,0,0,0,0,0,0,0,0,0,0,0,1,0,2.1,0,3.1q0,.2-.2.2c-.1,0-.2,0-.3,0,0,0-.1,0-.1-.1,0-.2,0-.4,0-.6,0-.3,0-.7,0-1Z"/>
        <path class="cls-2" d="M35.5,21.8c0,0,0-.1,0-.2,0-1,0-2.1,0-3.1q0-.2.2-.2c.1,0,.2,0,.3,0,0,0,.1,0,.1.1,0,0,0,0,0,0,0,1,0,2.1,0,3.1,0,0,0,0,0,0,0,0,0,0,0,0-.2,0-.4,0-.6,0Z"/>
        <path class="cls-2" d="M56.9,17.8c0-.5.4-.9.9-.9.5,0,.9.4.9.9,0,.5-.4.9-.9.9-.5,0-.9-.4-.9-.9ZM58.4,17.8c0-.3-.2-.7-.6-.7-.4,0-.7.3-.7.7,0,.4.3.7.7.7.4,0,.7-.3.6-.7Z"/>
        <path class="cls-2" d="M44.5,17.7c-.2,0-.4-.2-.4-.4,0-.2.2-.4.4-.4.2,0,.4.2.4.4,0,.2-.2.4-.4.4Z"/>
        <path class="cls-2" d="M35.8,17.7c-.2,0-.4-.2-.4-.4,0-.2.2-.4.4-.4.2,0,.4.2.4.4,0,.2-.2.4-.4.4Z"/>
        <path class="cls-2" d="M58,17.8c0,.1.1.2.1.3,0,0,0,0,0,.1,0,0-.1,0-.2,0,0,0,0,0,0-.1,0,0,0-.1-.2-.1,0,0,0,0-.1,0,0,0,0,0,0,.1,0,0,0,.1-.1.1,0,0,0,0,0-.1,0-.2,0-.4,0-.7,0,0,0-.1,0-.1.1,0,.3,0,.4,0,.1,0,.2.1.2.3,0,0,0,0,0,.1,0,0,0,0,0,0ZM57.6,17.7c0,0,0,.1.1.1.1,0,.2,0,.2-.1,0,0,0-.1-.2-.1,0,0-.1,0-.1.1Z"/>
      </g>
    </g>
  </g>
</svg>