<?xml version="1.0" encoding="UTF-8"?>
<svg xmlns="http://www.w3.org/2000/svg" xmlns:xlink="http://www.w3.org/1999/xlink" version="1.1" viewBox="0 0 1360.1 316.1">
  <defs>
    <style>
      .cls-1 {
        fill: url(#linear-gradient-8);
      }

      .cls-2 {
        fill: url(#linear-gradient-7);
      }

      .cls-3 {
        fill: url(#linear-gradient-5);
      }

      .cls-4 {
        fill: url(#linear-gradient-6);
      }

      .cls-5 {
        fill: url(#linear-gradient-9);
      }

      .cls-6 {
        fill: url(#linear-gradient-4);
      }

      .cls-7 {
        fill: url(#linear-gradient-3);
      }

      .cls-8 {
        fill: url(#linear-gradient-2);
      }

      .cls-9 {
        fill: url(#linear-gradient);
      }

      .cls-10 {
        fill: url(#linear-gradient-10);
      }

      .cls-11 {
        fill: url(#linear-gradient-11);
      }

      .cls-12 {
        fill: url(#linear-gradient-12);
      }

      .cls-13 {
        fill: url(#linear-gradient-13);
      }

      .cls-14 {
        fill: url(#linear-gradient-19);
      }

      .cls-15 {
        fill: url(#linear-gradient-14);
      }

      .cls-16 {
        fill: url(#linear-gradient-15);
      }

      .cls-17 {
        fill: url(#linear-gradient-16);
      }

      .cls-18 {
        fill: url(#linear-gradient-17);
      }

      .cls-19 {
        fill: url(#linear-gradient-18);
      }
    </style>
    <linearGradient id="linear-gradient" x1="505.2" y1="218.9" x2="544.6" y2="216.5" gradientTransform="translate(-17410.9 5092.9) scale(34.3 -22.9)" gradientUnits="userSpaceOnUse">
      <stop offset="0" stop-color="#32c92b"/>
      <stop offset=".1" stop-color="#32c342"/>
      <stop offset=".4" stop-color="#33b580"/>
      <stop offset=".7" stop-color="#33abad"/>
      <stop offset=".9" stop-color="#33a5c9"/>
      <stop offset="1" stop-color="#34a3d4"/>
    </linearGradient>
    <linearGradient id="linear-gradient-2" x1="486.3" y1="220.2" x2="553.5" y2="217.8" gradientTransform="translate(-9858.2 5087.7) scale(20.1 -22.9)" xlink:href="#linear-gradient"/>
    <linearGradient id="linear-gradient-3" x1="485.5" y1="220.5" x2="552.2" y2="218.1" gradientTransform="translate(-9912.4 5094.3) scale(20.2 -22.9)" xlink:href="#linear-gradient"/>
    <linearGradient id="linear-gradient-4" x1="435" y1="209.2" x2="607.5" y2="204.6" gradientTransform="translate(-3511.6 2662.1) scale(7.8 -11.6)" xlink:href="#linear-gradient"/>
    <linearGradient id="linear-gradient-5" x1="463.8" y1="209.5" x2="578.6" y2="204.9" gradientTransform="translate(-5559.3 2657.9) scale(11.8 -11.6)" xlink:href="#linear-gradient"/>
    <linearGradient id="linear-gradient-6" x1="418" y1="209.8" x2="616.4" y2="205.2" gradientTransform="translate(-2951.7 2663.3) scale(6.8 -11.6)" xlink:href="#linear-gradient"/>
    <linearGradient id="linear-gradient-7" x1="447.7" y1="210.1" x2="588.3" y2="205.5" gradientTransform="translate(-4403.8 2657.7) scale(9.6 -11.6)" xlink:href="#linear-gradient"/>
    <linearGradient id="linear-gradient-8" x1="442.5" y1="210.4" x2="590.1" y2="205.8" gradientTransform="translate(-4152.7 2659.1) scale(9.1 -11.6)" xlink:href="#linear-gradient"/>
    <linearGradient id="linear-gradient-9" x1="175.3" y1="210.6" x2="798.9" y2="206" gradientTransform="translate(-487.5 2657.6) scale(2.2 -11.6)" xlink:href="#linear-gradient"/>
    <linearGradient id="linear-gradient-10" x1="458.9" y1="210.9" x2="573.7" y2="206.3" gradientTransform="translate(-5501.7 2657.9) scale(11.8 -11.6)" xlink:href="#linear-gradient"/>
    <linearGradient id="linear-gradient-11" x1="444.3" y1="211.2" x2="582.3" y2="206.6" gradientTransform="translate(-4449.1 2659) scale(9.8 -11.6)" xlink:href="#linear-gradient"/>
    <linearGradient id="linear-gradient-12" x1="422.9" y1="211.5" x2="595.3" y2="206.9" gradientTransform="translate(-3415.1 2662) scale(7.8 -11.6)" xlink:href="#linear-gradient"/>
    <linearGradient id="linear-gradient-13" x1="489.3" y1="219.8" x2="554" y2="217.5" gradientTransform="translate(-10304.5 5089.8) scale(20.8 -22.9)" xlink:href="#linear-gradient"/>
    <linearGradient id="linear-gradient-14" x1="469.8" y1="219.4" x2="575.5" y2="217" gradientTransform="translate(-6100.1 5088.1) scale(12.8 -22.9)" xlink:href="#linear-gradient"/>
    <linearGradient id="linear-gradient-15" x1="424.1" y1="220" x2="606.3" y2="217.7" gradientTransform="translate(-3239.6 5085.7) scale(7.4 -22.9)" xlink:href="#linear-gradient"/>
    <linearGradient id="linear-gradient-16" x1="498.7" y1="218.8" x2="549.4" y2="216.7" gradientTransform="translate(-13375.5 5479.9) scale(26.6 -24.7)" xlink:href="#linear-gradient"/>
    <linearGradient id="linear-gradient-17" x1="480.3" y1="219.6" x2="564.2" y2="217.2" gradientTransform="translate(-7818.2 5109.2) scale(16.1 -23)" xlink:href="#linear-gradient"/>
    <linearGradient id="linear-gradient-18" x1="413.3" y1="235.2" x2="607.8" y2="227.2" gradientTransform="translate(-2799 1551.3) scale(6.7 -6.7)" xlink:href="#linear-gradient"/>
    <linearGradient id="linear-gradient-19" x1="256" y1="252" x2="711.7" y2="236.3" gradientTransform="translate(-857.9 844.6) scale(3 -3.4)" xlink:href="#linear-gradient"/>
  </defs>
  <!-- Generator: Adobe Illustrator 28.6.0, SVG Export Plug-In . SVG Version: 1.2.0 Build 709)  -->
  <g>
    <g id="Layer_2_xA0_Image">
      <g>
        <path id="Path_46" class="cls-9" d="M333.6,14.3c-5.2-.4-11.1-.6-17.8-.6s-10.3.2-14.9.6c-3.2.2-6.3.6-9.4,1.2l-24.1,78.3-19.7-63.9c-3-1-6.2-1.6-9.3-1.9-4.2-.3-8.3-.4-12.3-.4s-8.2.1-12.3.4c-4,.3-7.9.9-11.7,2l-19.8,64.5-24.4-79c-2.3-.5-4.7-.9-7.1-1.2-4.9-.5-10.1-.6-15.4-.6s-12.8.2-18.4.6-9.5.8-11.7,1.2l47.8,155c3.7,1,7.4,1.7,11.2,1.9,4.1.3,8.1.4,12.2.4s8.2-.1,12.3-.4c4.8-.3,9.6-1,14.3-2,3.6-12.9,21.9-71.9,21.9-71.9l21.9,71.9c4.3.9,8.6,1.6,13,1.9,4.2.3,8.3.4,12.3.4s8.1-.1,12.2-.4c3.8-.2,7.6-.9,11.2-1.9L343.3,15.5c-3.2-.6-6.4-1-9.7-1.2Z"/>
        <path id="Path_47" class="cls-8" d="M1060.6,24.9c-7.3-4.8-15.6-8-24.2-9.4-8.9-1.3-17.9-2-26.9-1.8-15.2,0-58.8,2.1-63.8,2.9v153.8c4.7.9,9.5,1.6,14.3,1.9,4.3.3,8.1.4,11.6.4s7-.1,11.2-.4c4.8-.4,9.6-1,14.3-1.9V58.7c1.5-.6,3.1-1,4.7-1.2,2.4-.4,4.8-.6,7.2-.6,6.9-.5,13.7,2,18.6,6.9,4.7,6.6,6.8,14.6,6.1,22.7v83.9c4.7.9,9.5,1.6,14.3,1.9,4.3.3,8.1.4,11.6.4s7-.1,11.2-.4c4.8-.4,9.6-1,14.3-1.9v-89.3c.5-12.2-1.8-24.4-6.8-35.5-4-8.3-10-15.4-17.6-20.6Z"/>
        <path id="Path_48" class="cls-7" d="M1192.9,130.5h-5.4c-9.4.7-18.7-2.7-25.5-9.3-6.5-8.2-9.6-18.6-8.7-29,0-4.6.6-9.2,1.9-13.7,1.2-4.3,3.3-8.2,6.2-11.6,3-3.5,6.8-6.2,11.1-7.9,5.3-2.1,11.1-3.1,16.8-3,5,0,10.1.7,15,1.9,6.5,1.5,12.8,3.5,18.9,6,1.8-4.3,3.3-8.2,4.6-11.6,1.3-3.4,2.4-6.7,3.3-9.7.9-3.1,1.7-6,2.3-9,.6-3.1,1-6.2,1.2-9.4-8.9-3.6-18.2-6.4-27.6-8.3-7.6-1.5-15.3-2.3-23.1-2.3-12.1-.2-24.1,1.9-35.4,6.2-9.6,3.7-18.4,9.4-25.6,16.8-6.9,7.1-12.3,15.7-15.6,25-3.5,9.8-5.3,20.2-5.3,30.6,0,10.7,1.4,21.3,4.4,31.5,5.4,19.6,19.8,35.4,38.7,42.8,11.7,4.5,24.2,6.7,36.8,6.3,12.2.2,24.4-1.1,36.3-3.8,8.2-1.9,16.4-4.3,24.3-7.1v-68.7c-16.8.5-33.4,3.3-49.5,8.2v29h0Z"/>
        <path id="Path_49" class="cls-6" d="M566.9,256.2c-1.8-1.6-3.8-2.9-5.9-3.9-2.2-1-4.5-2-6.8-2.7-2.3-.8-4.6-1.5-6.8-2.2-2-.6-4-1.4-5.9-2.3-1.6-.8-3-1.8-4.2-3.2-1.1-1.3-1.6-3-1.6-4.6,0-1.4.3-2.7.8-4,.5-1.2,1.3-2.3,2.4-3.1,1.2-.9,2.5-1.6,3.9-2,1.8-.5,3.6-.8,5.4-.8,2,0,4,.2,6,.8,1.5.5,3,1.1,4.4,1.9,1.3.7,2.3,1.3,3.3,1.9.7.5,1.6.8,2.5.8.7,0,1.3-.2,1.9-.5.6-.4,1.1-1,1.4-1.7l3.7-7c-3-2.7-6.5-4.8-10.3-6.1-4.2-1.5-8.7-2.2-13.1-2.2-3.8,0-7.6.6-11.2,1.9-3.1,1.1-5.9,2.9-8.3,5.1-2.2,2-3.9,4.5-5.1,7.3-1.2,2.7-1.8,5.5-1.8,8.4,0,3.1.5,6.2,1.6,9.1,1,2.3,2.4,4.4,4.2,6.1,1.8,1.6,3.8,3,5.9,4,2.2,1,4.5,1.9,6.8,2.6,2.3.8,4.5,1.4,6.8,2,2.1.5,4,1.3,5.9,2.3,1.6.8,3,1.9,4.2,3.3,1.1,1.5,1.6,3.3,1.6,5.1.2,3.2-1.1,6.4-3.5,8.6-2.8,2.1-6.4,3.2-9.9,3-2.4,0-4.9-.3-7.2-1.1-1.8-.7-3.5-1.5-5.2-2.5-1.5-.9-2.7-1.7-3.8-2.5-.9-.7-1.9-1.1-3-1.1-.7,0-1.4.2-1.9.5-.6.3-1.1.8-1.5,1.3l-4.4,7.1c1.6,1.6,3.4,3,5.3,4.3,2,1.3,4.2,2.4,6.4,3.3,4.7,1.9,9.7,2.9,14.7,2.9,4,0,8.1-.6,11.9-2,3.3-1.2,6.3-3.1,8.8-5.5,2.4-2.3,4.2-5.1,5.4-8.1,1.3-3.2,1.9-6.6,1.8-10,0-2.9-.5-5.7-1.6-8.3-.9-2.3-2.3-4.4-4.1-6Z"/>
        <path id="Path_50" class="cls-3" d="M657.9,226.8c-3.7-3.7-8-6.5-12.9-8.4-10.7-4.1-22.6-4.1-33.4,0-4.8,1.9-9.2,4.8-12.9,8.4-3.6,3.7-6.5,8-8.3,12.8-4,10.3-4,21.8,0,32.1,3.8,9.7,11.5,17.5,21.2,21.2,10.7,4.1,22.6,4.1,33.4,0,4.8-1.9,9.2-4.8,12.9-8.4,3.6-3.7,6.4-8,8.3-12.8,4-10.3,4-21.8,0-32.1-1.8-4.8-4.7-9.1-8.3-12.8ZM652,267.3c-1,3.2-2.8,6.2-5,8.7-2.2,2.4-5,4.3-8,5.5-6.9,2.5-14.4,2.5-21.2,0-3.1-1.2-5.8-3.1-8.1-5.5-2.3-2.5-4-5.5-5.1-8.7-1.2-3.8-1.8-7.7-1.8-11.6,0-4,.5-7.9,1.8-11.6,1.1-3.2,2.8-6.2,5.1-8.8,2.2-2.4,5-4.3,8.1-5.5,6.9-2.5,14.4-2.5,21.2,0,3,1.2,5.8,3.1,8,5.5,2.3,2.5,4,5.5,5,8.8,2.3,7.6,2.3,15.7,0,23.3h0Z"/>
        <path id="Path_51" class="cls-4" d="M709.9,215.3h-15v80.8h47.3v-12.1h-32.3v-68.7Z"/>
        <path id="Path_52" class="cls-2" d="M817.8,215.3v48.1c0,2.8-.4,5.6-1.3,8.2-.8,2.3-2,4.4-3.6,6.3-1.6,1.7-3.6,3.1-5.8,4-5,1.9-10.6,1.9-15.6,0-2.2-.9-4.2-2.3-5.8-4-1.6-1.8-2.8-3.9-3.6-6.3-.9-2.6-1.3-5.4-1.3-8.2v-48.1h-15v48.1c0,4.4.7,8.9,2.3,13,2.9,7.9,9.2,14.1,17.1,17.1,9,3.2,18.8,3.2,27.8,0,3.9-1.5,7.5-3.8,10.5-6.7,2.9-2.9,5.2-6.5,6.7-10.3,1.6-4.2,2.3-8.6,2.3-13v-48.1h-14.9Z"/>
        <path id="Path_53" class="cls-1" d="M855.1,227.3h24.3v68.6s14.9,0,14.9,0v-68.6h24.3v-12.1h-63.5v12.1Z"/>
        <rect id="Rectangle_523" class="cls-5" x="945.4" y="215.3" width="15" height="80.7"/>
        <path id="Path_54" class="cls-10" d="M1059,226.8c-3.7-3.7-8-6.5-12.9-8.4-10.7-4.1-22.6-4.1-33.4,0-4.8,1.9-9.2,4.8-12.9,8.4-3.6,3.7-6.5,8-8.3,12.8-4,10.3-4,21.8,0,32.1,3.8,9.7,11.5,17.5,21.2,21.2,10.7,4.1,22.6,4.1,33.4,0,4.8-1.9,9.2-4.8,12.9-8.4,3.6-3.7,6.4-8,8.3-12.8,4-10.3,4-21.8,0-32.1-1.8-4.8-4.7-9.1-8.3-12.8ZM1053.1,267.3c-1,3.2-2.8,6.2-5,8.7-2.2,2.4-5,4.3-8,5.5-6.9,2.5-14.4,2.5-21.2,0-3.1-1.2-5.8-3.1-8.1-5.5-2.3-2.5-4-5.5-5.1-8.7-1.2-3.8-1.8-7.7-1.8-11.6,0-4,.5-7.9,1.8-11.6,1.1-3.2,2.8-6.2,5.1-8.8,2.2-2.4,5-4.3,8.1-5.5,6.9-2.5,14.4-2.5,21.2,0,3,1.2,5.8,3.1,8,5.5,2.3,2.5,4,5.5,5,8.8,2.3,7.6,2.3,15.7,0,23.3h0Z"/>
        <path id="Path_55" class="cls-11" d="M1150.1,264.3c0,1.1,0,2.3,0,3.5,0,1.2.1,2.5.3,3.8l-42.2-54c-.3-.5-.7-.9-1.1-1.2-.3-.3-.6-.5-1-.7-.4-.2-.8-.3-1.2-.4-.5,0-1.1-.1-1.7,0h-7.8v80.7h13.2v-49.6c0-1,0-2,0-3.2,0-1.2-.1-2.3-.3-3.5l42.1,53.7c.6.9,1.4,1.5,2.3,2,.9.4,1.9.6,3,.6h7.7v-80.7h-13.2v49h0Z"/>
        <path id="Path_56" class="cls-12" d="M1233.6,256.2c-1.8-1.6-3.8-2.9-5.9-3.9-2.2-1-4.5-2-6.8-2.7-2.3-.8-4.6-1.5-6.8-2.2-2-.6-4-1.4-5.9-2.3-1.6-.8-3-1.8-4.2-3.2-1.1-1.3-1.6-3-1.6-4.6,0-1.4.3-2.7.8-4,.5-1.2,1.3-2.3,2.4-3.1,1.2-.9,2.5-1.6,3.9-2,1.8-.5,3.6-.8,5.4-.8,2,0,4,.2,6,.8,1.5.5,3,1.1,4.4,1.9,1.3.7,2.3,1.3,3.3,1.9.7.5,1.6.8,2.5.8.7,0,1.3-.2,1.9-.5.6-.4,1.1-1,1.4-1.7l3.7-7c-3-2.7-6.5-4.8-10.3-6.1-4.2-1.5-8.7-2.2-13.1-2.2-3.8,0-7.6.6-11.2,1.9-3.1,1.1-5.9,2.9-8.3,5.1-2.2,2-3.9,4.5-5.1,7.3-1.2,2.7-1.8,5.5-1.8,8.4,0,3.1.5,6.2,1.6,9.1,1,2.3,2.4,4.4,4.2,6.1,1.8,1.6,3.8,3,5.9,4,2.2,1,4.5,1.9,6.8,2.6,2.3.8,4.5,1.4,6.8,2,2.1.5,4,1.3,5.9,2.3,1.6.8,3,1.9,4.2,3.3,1.1,1.5,1.6,3.3,1.6,5.1.2,3.2-1.1,6.4-3.5,8.6-2.8,2.1-6.4,3.2-9.9,3-2.4,0-4.9-.3-7.2-1.1-1.8-.7-3.5-1.5-5.2-2.5-1.5-.9-2.8-1.7-3.8-2.5-.9-.7-1.9-1.1-3-1.1-.7,0-1.3.2-1.9.5-.6.3-1.1.8-1.5,1.3l-4.3,7.1c1.6,1.6,3.4,3,5.3,4.3,2,1.3,4.2,2.4,6.4,3.3,4.7,1.9,9.7,2.9,14.7,2.9,4,0,8.1-.6,11.9-2,3.3-1.2,6.3-3.1,8.8-5.5,2.4-2.3,4.2-5.1,5.4-8.1,1.3-3.2,1.9-6.6,1.8-10,0-2.9-.5-5.7-1.6-8.3-.9-2.3-2.3-4.3-4.2-6Z"/>
        <path id="Path_57" class="cls-13" d="M817.7,88.1l34.8-72.8c-3.2-.7-6.4-1-9.7-1-5.4-.4-10.7-.6-16-.6s-8.7.2-14,.6c-4.5.3-9,.9-13.4,1.8l-33,68.4V16.4c-4.3-1-8.7-1.7-13.1-2.1-4.5-.4-8.6-.6-12.5-.6s-8.3.2-12.6.6c-4.4.4-8.9,1.1-13.2,2.1v153.9c4.7.9,9.5,1.6,14.3,1.9,4.3.3,8.1.4,11.6.4s7-.1,11.2-.4c4.8-.4,9.6-1,14.3-1.9v-73.9l37.5,74c4,1,8.2,1.6,12.3,1.8,5.2.4,10.4.6,15.7.6s8.8-.2,14.3-.6c4.6-.3,9.2-.9,13.7-1.8l-42.2-82.3Z"/>
        <path id="Path_58" class="cls-15" d="M573.7,16.1c-4.4-.9-8.9-1.5-13.4-1.8-5.3-.4-9.9-.6-14-.6s-10.6.2-16,.6c-4.4.3-8.7.9-13,1.8l32.4,77.4-32.4,76.5c4.2,1.1,8.6,1.8,12.9,2.2,5.5.4,10.3.6,14.3.6s10.5-.2,15.7-.6c4.2-.2,8.3-.9,12.3-1.8l33.5-76.9-32.4-77.3Z"/>
        <path id="Path_59" class="cls-16" d="M898.9,13.7c-8.7,0-17.3.9-25.8,2.5v154c8.5,1.6,17.2,2.4,25.8,2.5,8.6-.1,17.2-1,25.6-2.5V16.2c-8.4-1.6-17-2.4-25.6-2.5Z"/>
        <path id="Path_60" class="cls-17" d="M430.9,12.3c-51.1,0-93.4,35.2-93.4,79.3.2,18.1,7.1,35.5,19.4,48.9,0,0,0,0,0,.1l-14.4,43.3,44.8-21.4s0,0,0,0c13.4,6,27.9,9.1,42.6,9,51.1,0,92-35.7,92.5-79.9.5-45.8-40.5-79.4-91.6-79.4ZM429.8,134.1c-7.6,0-15.1-1.6-22.1-4.7h0l-23.2,11.1,7.5-22.4s0,0,0,0c-6.4-6.9-10-15.9-10-25.4,0-22.9,21.5-41.3,47.9-41.3s47.9,18.4,47.9,41.3-21.5,41.4-47.9,41.4h0Z"/>
        <path id="Path_61" class="cls-18" d="M665.3,105.4c12.3-9.3,19.6-23.8,19.8-39.2,0-29.2-26.8-53-59.8-53s-.5,0-.9,0c-.8,0-1.6,0-2.5,0-12.5,0-25.1.9-37.5,2.4l14.3,34.3c1.8-.3,3.7-.5,5.5-.4,16.9,0,30.6,11.5,30.6,25.5s-11.4,23.3-26.2,25.1l30,70.6c4.6.9,9.3,1.6,14,1.9,5.3.4,9.8.5,15.5.5s9.5-.2,14.4-.6c4.5-.3,9.1-1,13.5-1.8l-30.7-65h0Z"/>
        <path id="Path_62" class="cls-19" d="M1284.2,15.8c-12.8.5-22.8,11.2-22.3,24,.5,12.8,11.2,22.8,24,22.3,12.5-.5,22.4-10.8,22.3-23.3-.3-13-11-23.3-24-23,0,0,0,0,0,0ZM1284.4,57.2c-10.1.3-18.6-7.7-18.9-17.9-.3-10.1,7.7-18.6,17.9-18.9,10.1-.3,18.6,7.7,18.9,17.9,0,.2,0,.4,0,.7.2,9.8-7.6,18-17.4,18.2-.2,0-.3,0-.5,0h0Z"/>
        <path id="Path_63" class="cls-14" d="M1289.7,39.5v-.3c2.6-.5,4.6-2.7,4.9-5.3,0-1.9-.8-3.8-2.3-5-2.5-1.3-5.3-1.9-8.1-1.7-3,0-6,.2-9,.7v23h5.4v-9.3h2.6c3,0,4.5,1.1,4.9,3.7.3,1.9,1,3.8,1.8,5.6h5.9c-.9-1.8-1.5-3.7-1.7-5.7-.3-2.5-1.9-4.7-4.3-5.6ZM1283.2,37.8h-2.6v-6.6c1-.2,2-.3,3-.3,3.4,0,5,1.4,5,3.5,0,2.4-2.4,3.4-5.4,3.4h0Z"/>
      </g>
    </g>
  </g>
</svg>