<?xml version="1.0" encoding="UTF-8"?>
<svg xmlns="http://www.w3.org/2000/svg" version="1.1" viewBox="0 0 155.7 34">
  <defs>
    <style>
      .cls-1 {
        fill: #fff;
      }

      .cls-2 {
        fill: none;
        stroke: #000;
        stroke-miterlimit: 10;
        stroke-width: 89px;
      }
    </style>
  </defs>
  <!-- Generator: Adobe Illustrator 28.6.0, SVG Export Plug-In . SVG Version: 1.2.0 Build 709)  -->
  <g>
    <g id="Layer_1">
      <path class="cls-2" d="M28.3,17.5"/>
      <path class="cls-2" d="M28.5,17.5"/>
      <path class="cls-1" d="M16.9,1.7C8.4,1.7,1.6,8.5,1.6,16.9s6.7,15.1,15.1,15.2v-7.4c-4.3-.1-7.8-3.6-7.8-7.8s3.6-7.8,8-7.8,8,3.5,8,7.8h7.3c0-8.4-6.8-15.2-15.3-15.2Z"/>
      <rect class="cls-1" x="16.7" y="24.8" width="8.2" height="8.2"/>
      <rect x="16.7" y="16.6" width="8.3" height="8.1"/>
      <rect class="cls-1" x="24.9" y="16.6" width="8.2" height="8.2"/>
      <rect x="24.9" y="24.6" width="7.4" height="7.5"/>
      <g>
        <polygon class="cls-1" points="28.2 28.5 29.5 30.8 30.8 30.8 29.3 28.5 30.8 26.2 29.5 26.2 28.2 28.5"/>
        <polygon class="cls-1" points="29.3 28.5 27.9 30.8 26.6 30.8 28.1 28.5 26.6 26.2 27.9 26.2 29.3 28.5"/>
      </g>
      <path class="cls-1" d="M23.1,17.8v3.1c0,.8-.2,1.4-.7,1.8-.4.4-1,.7-1.6.7s-1.2-.2-1.6-.7-.7-1-.7-1.8v-3.1h1.1v3.1c0,1.1.7,1.3,1.2,1.3,1,0,1.1-.7,1.1-1.3v-3.1h1.2Z"/>
      <path d="M23,26v2.9c0,.7-.2,1.4-.6,1.7-.4.4-.9.6-1.6.6s-1.1-.2-1.6-.6-.6-.9-.6-1.7v-2.9h1v2.9c0,1,.6,1.3,1.1,1.3.9,0,1-.6,1-1.3v-2.9h1.1Z"/>
      <rect x="28" y="18" width="1" height="5.1"/>
      <g>
        <path class="cls-1" d="M51.5,10c-.8-.6-1.6-1.1-2.4-1.4-.8-.3-1.6-.5-2.3-.5s-1.7.2-2.3.7c-.6.5-1,1.2-.9,2,0,.9.9,1.4,1.6,1.7.5.2,1,.4,1.6.6.6.2,1.2.4,1.8.6,2.4.8,4.1,1.8,5.2,3.2,1.1,1.3,1.6,3,1.6,5.2s-.2,2.7-.7,3.9c-.5,1.2-1.2,2.1-2.1,3-.9.8-2.1,1.5-3.4,1.9-1.3.5-2.9.7-4.6.7-3.5,0-6.8-1-9.8-3.1l3.1-5.8c1.1,1,2.2,1.7,3.2,2.1,1.1.5,2.1.7,3.1.7s2.1-.3,2.6-.8c.6-.5.9-1.2.9-1.8s0-.8-.2-1.1c0-.3-.4-.6-.7-.8-.3-.3-.8-.5-1.3-.7-.6-.2-1.2-.5-2-.7-.9-.3-1.9-.6-2.8-1-.9-.4-1.7-.8-2.4-1.4s-1.3-1.3-1.7-2.2-.6-2-.6-3.4.2-2.6.7-3.8c.5-1.1,1.1-2.1,1.9-2.9.8-.8,1.8-1.4,3-1.9,1.2-.4,2.5-.7,4-.7s2.8.2,4.3.6,2.9.9,4.3,1.7c0,0-2.7,5.4-2.7,5.4Z"/>
        <path class="cls-1" d="M68.7,2.8v17.7c0,.8.2,1.6.6,2.3.3.7.8,1.3,1.5,1.7.7.4,1.6.6,2.8.6s2.1-.2,2.8-.6c.7-.4,1.1-1,1.5-1.7.3-.7.5-1.5.6-2.3V2.8h7.2v16.1c0,4.3-1,7.5-3,9.5s-5,3-9.1,3-7.2-1-9.2-3-3-5.2-3-9.5V2.8h7.3Z"/>
        <path class="cls-1" d="M93.1,30.7V2.8h7.2l13.4,17V2.8h7.2v27.9h-7.2l-13.4-17v17h-7.2Z"/>
        <path class="cls-1" d="M145.4,25.9h-10.3l-1.7,4.8h-7.7l10.6-27.9h7.9l10.6,27.9h-7.7l-1.7-4.8h0ZM143.5,20.4l-3.3-9.3-3.3,9.3h6.6Z"/>
      </g>
    </g>
  </g>
</svg>